<?xml version="1.0" encoding="UTF-8"?>
<svg xmlns="http://www.w3.org/2000/svg" xmlns:xlink="http://www.w3.org/1999/xlink" width="606pt" height="129.79pt" viewBox="0 0 606 129.79" version="1.1">
<defs>
<clipPath id="clip1">
  <path d="M 0 0 L 130 0 L 130 129.789063 L 0 129.789063 Z M 0 0 "/>
</clipPath>
</defs>
<g id="surface1">
<path style=" stroke:none;fill-rule:nonzero;fill:rgb(12.820435%,11.13739%,11.123657%);fill-opacity:1;" d="M 265.085938 112.765625 L 254.753906 112.765625 L 254.753906 67.121094 L 208.148438 67.121094 L 208.148438 112.765625 L 197.808594 112.765625 L 197.828125 17.597656 L 208.148438 17.597656 L 208.148438 57.851563 L 254.753906 57.851563 L 254.753906 17.597656 L 265.085938 17.597656 L 265.085938 112.765625 "/>
<path style=" stroke:none;fill-rule:nonzero;fill:rgb(12.820435%,11.13739%,11.123657%);fill-opacity:1;" d="M 309.097656 114.152344 C 289.757813 114.152344 276.800781 100.257813 276.800781 79.578125 C 276.800781 57.335938 289.324219 42.363281 307.972656 42.363281 C 334.46875 42.363281 335.265625 70.511719 335.265625 73.734375 C 335.265625 75.546875 335.265625 76.644531 334.914063 78.082031 L 334.605469 79.578125 L 287.019531 79.578125 C 287.644531 95.605469 295.902344 104.777344 309.910156 104.777344 C 318.636719 104.777344 323.351563 103.105469 327.082031 101.285156 L 329.070313 100.347656 L 331.875 108.9375 L 330.480469 109.683594 C 328.101563 111.046875 321.261719 114.152344 309.097656 114.152344 M 287.730469 70.589844 L 324.609375 70.589844 C 324.425781 66.851563 323.425781 60.53125 319.117188 56.144531 C 316.199219 53.148438 312.175781 51.65625 307.175781 51.65625 C 295.464844 51.65625 289.472656 61.320313 287.730469 70.589844 "/>
<path style=" stroke:none;fill-rule:nonzero;fill:rgb(12.820435%,11.13739%,11.123657%);fill-opacity:1;" d="M 346.925781 12.570313 L 346.925781 112.773438 L 357.277344 112.773438 L 357.277344 12.570313 L 346.925781 12.570313 "/>
<path style=" stroke:none;fill-rule:nonzero;fill:rgb(12.820435%,11.13739%,11.123657%);fill-opacity:1;" d="M 378.675781 34.109375 L 378.539063 34.109375 C 374.988281 34.109375 372.242188 31.097656 372.242188 27.246094 C 372.242188 23.445313 375.238281 20.25 378.800781 20.25 C 382.433594 20.25 385.253906 23.332031 385.253906 27.246094 C 385.253906 31.136719 382.433594 34.109375 378.675781 34.109375 "/>
<path style=" stroke:none;fill-rule:nonzero;fill:rgb(12.820435%,11.13739%,11.123657%);fill-opacity:1;" d="M 373.648438 43.886719 L 373.648438 112.773438 L 383.984375 112.773438 L 383.984375 43.886719 L 373.648438 43.886719 "/>
<path style=" stroke:none;fill-rule:nonzero;fill:rgb(12.820435%,11.13739%,11.123657%);fill-opacity:1;" d="M 462.441406 113.65625 L 445 113.65625 L 445 73.078125 C 445 62.027344 440.816406 56.429688 432.558594 56.429688 C 425.664063 56.429688 420.886719 61.625 419.1875 66.714844 C 418.757813 67.933594 418.542969 69.613281 418.542969 71.445313 L 418.542969 113.65625 L 401.070313 113.65625 L 401.070313 63.023438 C 401.070313 55.679688 400.894531 50.441406 400.527344 45.46875 L 400.296875 42.503906 L 416.453125 42.503906 L 416.863281 48.933594 C 420.394531 45.519531 426.773438 41.152344 436.511719 41.152344 C 440.816406 41.152344 462.441406 42.617188 462.429688 71.816406 L 462.441406 113.65625 "/>
<path style=" stroke:none;fill-rule:nonzero;fill:rgb(12.820435%,11.13739%,11.123657%);fill-opacity:1;" d="M 503.722656 115.132813 C 483.558594 115.132813 469.511719 100.109375 469.511719 78.625 C 469.511719 56.535156 484.023438 41.152344 504.8125 41.152344 C 525.046875 41.152344 539.144531 56.113281 539.144531 77.535156 C 539.144531 103.378906 520.800781 115.132813 503.722656 115.132813 M 504.550781 55.617188 C 492.574219 55.617188 487.246094 66.960938 487.246094 78.191406 C 487.246094 91.222656 494.394531 100.652344 504.285156 100.652344 C 514.234375 100.652344 521.460938 91.125 521.460938 77.917969 C 521.460938 67.21875 516.128906 55.617188 504.550781 55.617188 "/>
<path style=" stroke:none;fill-rule:nonzero;fill:rgb(12.820435%,11.13739%,11.123657%);fill-opacity:1;" d="M 606 113.65625 L 585.921875 113.65625 L 575.324219 97.648438 C 573.570313 95.042969 571.953125 92.46875 570.464844 89.992188 C 569.09375 92.292969 567.570313 94.769531 565.683594 97.648438 L 555.410156 113.65625 L 535.433594 113.65625 L 560.707031 77.410156 L 536.539063 42.503906 L 556.640625 42.503906 L 566.792969 57.835938 C 568.324219 60.046875 569.789063 62.273438 571.347656 64.785156 C 572.675781 62.613281 574.117188 60.367188 575.855469 57.730469 L 585.722656 42.503906 L 605.59375 42.503906 L 581.246094 77.042969 L 606 113.65625 "/>
<g clip-path="url(#clip1)" clip-rule="nonzero">
<path style=" stroke:none;fill-rule:nonzero;fill:rgb(12.820435%,11.13739%,11.123657%);fill-opacity:1;" d="M 0 64.882813 C 35.832031 64.882813 64.894531 35.839844 64.894531 0.00390625 C 64.894531 35.839844 93.949219 64.882813 129.78125 64.882813 C 93.949219 64.882813 64.894531 93.949219 64.894531 129.789063 C 64.894531 93.949219 35.832031 64.882813 0 64.882813 M 129.78125 64.882813 L 64.894531 0.00390625 L 0 64.882813 L 64.894531 129.789063 L 129.78125 64.882813 "/>
</g>
</g>
</svg>
